<?xml version="1.0" encoding="UTF-8" standalone="no"?><!-- Generator: Gravit.io --><svg xmlns="http://www.w3.org/2000/svg" xmlns:xlink="http://www.w3.org/1999/xlink" style="isolation:isolate" viewBox="0 0 1800 1200" width="1800pt" height="1200pt"><defs><clipPath id="_clipPath_dGfTXA5SyIE9yBOkO2KuZfYY4EJfVLGF"><rect width="1800" height="1200"/></clipPath></defs><g clip-path="url(#_clipPath_dGfTXA5SyIE9yBOkO2KuZfYY4EJfVLGF)"><g style="isolation:isolate"/><g><g><path d=" M 350.488 360.649 Q 451.35 296.306 515.693 291.089 C 580.037 285.872 600.905 322.391 614.817 348.476 Q 628.729 374.561 585.254 404.124 Q 513.954 445.86 496.564 442.382 C 479.174 438.904 564.385 444.121 567.863 459.772 C 571.342 475.423 553.951 506.725 533.083 515.42 C 523.091 519.584 440.656 567.404 427.743 570.975 Q 414.831 574.546 345.271 616.282 Q 254.843 624.977 206.151 664.974 Q 230.497 618.021 319.186 574.546 Q 333.098 562.373 343.532 576.285 Q 447.872 511.942 461.784 485.857 Q 406.136 473.684 340.054 560.634 Q 317.447 560.634 284.406 583.241 Q 254.843 581.502 331.359 489.335 Q 433.96 343.259 447.872 355.432 Q 482.652 350.215 451.35 426.731 Q 545.256 372.822 553.951 357.171 Q 512.215 308.479 376.573 393.69 Q 352.227 378.039 350.488 360.649 Z " fill="rgb(255,255,255)" vector-effect="non-scaling-stroke" stroke-width="1" stroke="rgb(255,255,255)" stroke-linejoin="miter" stroke-linecap="square" stroke-miterlimit="3"/><path d=" M 574.82 496.291 Q 616.556 447.599 646.119 437.165 Q 677.421 419.775 698.289 428.47 Q 675.682 485.857 675.682 513.681 Q 666.987 553.678 672.204 569.329 Q 703.506 562.373 698.289 551.939 L 700.028 553.678 Q 686.116 525.854 734.808 421.514 Q 797.412 400.646 811.324 402.385 Q 764.371 400.646 743.503 407.602 Q 776.544 308.479 767.849 296.306 Q 762.632 291.089 712.201 367.605 Q 719.157 393.69 706.984 402.385 Q 680.899 409.341 670.465 409.341 Q 737.688 326.739 743.557 310.109 C 749.426 293.48 696.115 335.542 646.227 388.365 Q 643.537 404.016 603.921 396.679 Q 607.589 412.819 621.528 421.623 Q 576.531 468.984 574.82 496.291 Z " fill="rgb(255,255,255)" vector-effect="non-scaling-stroke" stroke-width="1" stroke="rgb(255,255,255)" stroke-linejoin="miter" stroke-linecap="square" stroke-miterlimit="3"/><path d=" M 1049.019 603.745 Q 1062.097 546.955 1054.117 517.46 Q 1050.215 483.4 1033.07 469.743 Q 1003.757 514.338 983.813 526.749 Q 959.69 551.896 945.743 554.493 Q 934.361 525.088 944.568 524.818 L 942.412 524.132 Q 969.631 523.411 1018.96 435.954 Q 1001.182 374.04 992.661 363.126 Q 1018.459 401.805 1024.386 422.442 Q 1078.159 350.464 1091.431 352.34 Q 1097.899 354.397 1069.423 430.904 Q 1047.088 436.694 1047.221 450.802 Q 1055.875 475.824 1061.331 484.591 Q 1085.389 391.259 1094.239 378.909 C 1103.09 366.56 1100.817 430.119 1089.041 495.601 Q 1079.229 504.842 1105.203 534.859 Q 1091.716 538.976 1078.117 531.19 Q 1067.698 590.126 1049.019 603.745 Z " fill="rgb(255,255,255)" vector-effect="non-scaling-stroke" stroke-width="1" stroke="rgb(255,255,255)" stroke-linejoin="miter" stroke-linecap="square" stroke-miterlimit="3"/><path d=" M 730.841 537.538 Q 730.107 448.034 782.929 379.805 Q 806.406 395.945 825.48 459.039 Q 868.031 360.731 891.508 371.002 Q 901.779 396.679 884.905 428.226 C 868.031 459.772 826.948 501.59 832.083 536.071 Q 829.148 541.94 804.205 544.875 Q 782.929 464.908 779.261 471.511 Q 746.981 507.459 730.841 537.538 Z " fill="rgb(255,255,255)" vector-effect="non-scaling-stroke" stroke-width="1" stroke="rgb(255,255,255)" stroke-linejoin="miter" stroke-linecap="square" stroke-miterlimit="3"/><path d=" M 884.905 458.305 L 931.125 367.333 Q 919.386 367.333 910.583 360.731 Q 913.517 337.254 945.797 338.721 Q 955.335 325.516 962.671 318.18 Q 1079.32 318.913 1066.848 364.399 Q 1049.241 410.618 919.386 486.917 Q 894.442 494.253 847.489 514.795 Q 837.952 500.123 881.971 478.847 Q 950.933 427.492 961.204 412.819 Q 1014.76 381.273 1016.227 364.399 Q 1011.825 354.862 982.479 365.133 Q 972.208 379.072 955.335 409.151 Q 911.316 460.506 884.905 458.305 Z " fill="rgb(255,255,255)" vector-effect="non-scaling-stroke" stroke-width="1" stroke="rgb(255,255,255)" stroke-linejoin="miter" stroke-linecap="square" stroke-miterlimit="3"/><path d=" M 1164.422 489.852 C 1166.623 498.655 1209.908 459.039 1234.852 461.973 Q 1227.516 480.314 1199.637 505.258 Q 1165.89 532.403 1144.614 539.006 Q 1114.535 544.875 1089.591 533.136 Q 1091.058 503.791 1105.731 490.585 C 1120.404 477.38 1132.876 448.768 1139.479 427.492 C 1146.081 406.216 1163.689 332.852 1190.1 335.053 C 1216.511 337.254 1204.773 392.277 1196.703 418.688 C 1188.633 445.099 1162.222 481.048 1164.422 489.852 Z " fill="rgb(255,255,255)" vector-effect="non-scaling-stroke" stroke-width="1" stroke="rgb(255,255,255)" stroke-linejoin="miter" stroke-linecap="square" stroke-miterlimit="3"/><path d=" M 1336.094 377.604 Q 1363.973 383.474 1268.599 471.511 Q 1235.586 539.739 1314.085 500.856 Q 1347.099 482.515 1339.029 412.086 Q 1352.968 376.137 1377.912 417.221 Q 1380.847 473.711 1361.772 502.323 C 1342.697 530.935 1281.805 572.019 1251.726 546.342 C 1221.646 520.664 1208.441 455.37 1259.062 422.357 Q 1311.151 359.263 1336.094 377.604 Z " fill="rgb(255,255,255)" vector-effect="non-scaling-stroke" stroke-width="1" stroke="rgb(255,255,255)" stroke-linejoin="miter" stroke-linecap="square" stroke-miterlimit="3"/><path d=" M 1524.64 611.391 Q 1342.697 675.952 1349.545 559.547 Q 1349.545 490.096 1380.847 503.791 Q 1385.738 618.239 1462.036 591.828 Q 1499.207 569.329 1445.407 516.507 Q 1382.803 489.118 1393.563 457.816 Q 1455.189 358.041 1509.967 365.866 Q 1564.746 373.692 1553.008 431.405 Q 1522.684 408.906 1464.971 419.667 Q 1417.04 471.511 1490.404 488.14 C 1563.768 504.769 1543.776 598.858 1535.4 605.522 Q 1527.025 612.186 1524.64 611.391 Z " fill="rgb(255,255,255)" vector-effect="non-scaling-stroke" stroke-width="1" stroke="rgb(255,255,255)" stroke-linejoin="miter" stroke-linecap="square" stroke-miterlimit="3"/></g><g><path d=" M 717.635 646.606 C 754.289 647.739 759.793 597.211 780.239 569.329 C 834.627 536.696 811.823 619.354 797.846 636.824 C 772.568 668.423 757.459 705.767 740.133 734.643 C 718.823 770.16 667.998 793.685 691.224 735.621 C 714.239 678.084 700.824 681.146 674.595 724.861 C 661.333 746.964 620.175 793.564 623.729 747.36 C 624.028 743.476 625.602 733.152 627.642 729.752 C 646.783 697.849 661.81 655.74 682.42 629.977 C 702.674 604.66 707.512 521.481 736.221 569.329 C 745.133 584.183 726.931 631.441 717.635 646.606 Z " fill="rgb(255,255,255)" vector-effect="non-scaling-stroke" stroke-width="1" stroke="rgb(255,255,255)" stroke-linejoin="miter" stroke-linecap="square" stroke-miterlimit="3"/><path d=" M 550.039 630.629 C 578.312 692.794 597.016 616.98 615.251 596.719 C 669.286 583.21 640.198 539.332 595.688 539.332 C 569.232 539.332 523.956 564.763 504.39 574.546 C 476.271 588.606 427.214 638.905 415.701 661.931 C 395.348 702.637 380.486 725.687 380.486 768.88 C 380.486 812.403 444.242 827.647 473.088 813.224 C 513.945 792.796 540.973 762.311 572.211 738.882 C 593.121 723.199 671.536 668.076 638.728 676.278 C 608.909 683.733 551.551 713.893 533.083 732.361 C 521.742 743.703 427.526 784.877 424.831 774.097 C 413.947 730.561 440.66 700.88 466.567 674.974 C 498.526 643.015 512.215 625.412 542.213 609.761 C 594.792 557.182 580.181 603.784 551.343 625.412 L 550.039 630.629 Z " fill="rgb(255,255,255)" vector-effect="non-scaling-stroke" stroke-width="1" stroke="rgb(255,255,255)" stroke-linejoin="miter" stroke-linecap="square" stroke-miterlimit="3"/><path d=" M 873.493 570.634 C 834.903 575.272 821.852 638.292 872.189 598.023 C 885.592 584.62 876.101 580.315 873.493 570.634 Z " fill="rgb(255,255,255)" vector-effect="non-scaling-stroke" stroke-width="1" stroke="rgb(255,255,255)" stroke-linejoin="miter" stroke-linecap="square" stroke-miterlimit="3"/><path d=" M 838.278 622.804 C 836.193 663.28 795.09 682.086 786.108 718.014 C 774.451 741.328 729.61 837.665 774.37 804.095 C 812.923 775.18 806.287 736.962 834.365 708.884 C 852.331 690.919 890.309 605.231 840.887 617.587 L 838.278 622.804 Z " fill="rgb(255,255,255)" vector-effect="non-scaling-stroke" stroke-width="1" stroke="rgb(255,255,255)" stroke-linejoin="miter" stroke-linecap="square" stroke-miterlimit="3"/><path d=" M 850.016 778.009 C 879.823 770.198 894.284 679.959 904.795 711.493 C 913.394 732.989 914.699 750.945 920.446 766.271 C 925.102 778.688 959.574 810.577 959.574 780.618 C 959.574 736.754 984.849 707.894 1001.31 674.974 C 1010.088 657.417 1065.934 579.763 1019.569 579.763 C 982.224 579.763 984.018 657.05 962.182 678.886 C 921.109 719.959 940.424 653.629 921.75 616.282 C 893.853 560.488 877.181 655.859 870.884 668.452 C 852.167 705.888 835.21 741.169 850.016 778.009 Z " fill="rgb(255,255,255)" vector-effect="non-scaling-stroke" stroke-width="1" stroke="rgb(255,255,255)" stroke-linejoin="miter" stroke-linecap="square" stroke-miterlimit="3"/><path d=" M 1129.126 601.936 C 1170.193 649.223 1130.414 655.426 1100.433 685.408 C 1090.129 699.146 1016.35 769.98 1052.175 781.922 C 1089.323 794.305 1134.41 747.877 1146.081 724.535 C 1166.869 682.96 1186.513 665.238 1186.513 621.499 C 1186.513 604.993 1146.852 634.183 1143.473 607.153 C 1140.917 586.702 1173.452 569.315 1189.122 581.068 C 1224.532 607.626 1214.541 654.16 1206.077 688.016 C 1193.964 736.467 1177.212 754.335 1142.169 780.618 C 1113.96 801.775 1060.796 833.583 1033.916 806.703 C 1009.927 782.714 995.078 729.535 1020.873 710.188 C 1048.75 689.281 1060.928 651.874 1083.477 629.325 C 1087.39 625.412 1131.735 600.631 1129.126 601.936 Z " fill="rgb(255,255,255)" vector-effect="non-scaling-stroke" stroke-width="1" stroke="rgb(255,255,255)" stroke-linejoin="miter" stroke-linecap="square" stroke-miterlimit="3"/><path d=" M 1109.562 871.916 C 1141.857 845.471 1202.618 815.091 1242.596 802.79 C 1277.847 767.539 1260.257 755.239 1228.249 723.231 C 1193.935 688.917 1226.145 645.776 1246.509 625.412 C 1270.768 601.152 1330.761 570.889 1346.936 603.24 C 1360.004 629.375 1316.248 706.276 1289.549 706.276 C 1280.147 706.276 1336.592 597.303 1297.375 626.716 C 1256.94 657.042 1235.507 684.216 1264.768 723.231 C 1284.589 749.659 1339.894 813.589 1289.549 823.658 C 1241.554 833.257 1193.827 850.628 1152.603 858.873 C 1136.181 862.157 1115.863 873.065 1109.562 871.916 Z " fill="rgb(255,255,255)" vector-effect="non-scaling-stroke" stroke-width="1" stroke="rgb(255,255,255)" stroke-linejoin="miter" stroke-linecap="square" stroke-miterlimit="3"/></g></g></g></svg>