<?xml version="1.0" encoding="UTF-8" standalone="no"?><!-- Generator: Gravit.io --><svg xmlns="http://www.w3.org/2000/svg" xmlns:xlink="http://www.w3.org/1999/xlink" style="isolation:isolate" viewBox="0 0 1800 800" width="1800pt" height="800pt"><defs><clipPath id="_clipPath_xrTQW9eUvRBmWNqTUMcjizix1Rz9s0Ao"><rect width="1800" height="800"/></clipPath></defs><g clip-path="url(#_clipPath_xrTQW9eUvRBmWNqTUMcjizix1Rz9s0Ao)"><g style="isolation:isolate"/><g><g><path d=" M 191.791 146.108 Q 319.941 54.849 404.092 43.686 C 488.244 32.524 518.096 79.085 538.115 112.41 Q 558.133 145.735 503.018 187.473 Q 412.179 247.062 389.108 243.66 C 366.037 240.257 478.293 241.399 483.909 261.72 C 489.525 282.041 468.785 324.315 441.962 337.133 C 429.117 343.27 324.06 411.595 307.342 417.15 Q 290.624 422.706 202.068 482.178 Q 83.893 499.656 22.626 555.446 Q 51.453 492.152 165.015 429.114 Q 182.47 412.195 197.105 429.767 Q 329.822 338.274 346.344 303.085 Q 272.447 290.827 191.488 409.445 Q 161.799 410.96 119.921 442.864 Q 80.98 442.561 175.292 316.392 Q 300.249 117.677 319.335 132.732 Q 364.661 123.55 328.68 226.135 Q 448.393 149.044 458.764 127.907 Q 400.69 66.757 228.262 187.753 Q 195.24 168.83 191.791 146.108 Z " fill="rgb(255,255,255)" vector-effect="non-scaling-stroke" stroke-width="1" stroke="rgb(255,255,255)" stroke-linejoin="miter" stroke-linecap="square" stroke-miterlimit="3"/><path d=" M 495.491 309.214 Q 547.04 242.471 585.166 226.787 Q 625.109 201.852 653.098 211.873 Q 627.253 288.753 629.117 325.294 Q 620.378 378.404 628.279 398.609 Q 668.921 387.376 661.371 374.023 L 663.771 376.19 Q 643.636 340.582 700.591 200.291 Q 781.41 168.69 799.797 170.042 Q 738.018 170.904 711.078 181.437 Q 747.829 49.046 735.594 33.642 Q 728.393 27.14 667.289 131.007 Q 678.173 164.798 662.768 177.033 Q 628.977 187.916 615.275 188.615 Q 698.023 75.63 704.617 53.398 C 711.211 31.165 644.016 89.977 582.039 162.691 Q 579.554 183.425 527.035 176.445 Q 532.934 197.396 551.83 208.023 Q 495.91 273.236 495.491 309.214 Z " fill="rgb(255,255,255)" vector-effect="non-scaling-stroke" stroke-width="1" stroke="rgb(255,255,255)" stroke-linejoin="miter" stroke-linecap="square" stroke-miterlimit="3"/><path d=" M 1125.452 418.558 Q 1138.822 343.101 1126.366 304.899 Q 1118.958 260.431 1095.527 243.644 Q 1060.019 304.174 1034.658 321.809 Q 1004.662 356.451 986.521 360.797 Q 969.602 322.942 982.989 321.903 L 980.112 321.147 Q 1015.81 318.376 1074.733 200.215 Q 1047.237 120.095 1035.315 106.333 Q 1071.787 155.4 1080.953 182.106 Q 1146.75 83.975 1164.306 85.55 Q 1172.937 87.818 1140.667 190.201 Q 1111.723 199.302 1112.843 217.82 Q 1125.884 250.101 1133.637 261.25 Q 1158.978 137.066 1169.774 120.254 C 1180.57 103.443 1181.844 187.067 1170.766 273.852 Q 1158.499 286.646 1194.622 324.327 Q 1177.186 330.637 1158.804 321.323 Q 1149.07 399.421 1125.452 418.558 Z " fill="rgb(255,255,255)" vector-effect="non-scaling-stroke" stroke-width="1" stroke="rgb(255,255,255)" stroke-linejoin="miter" stroke-linecap="square" stroke-miterlimit="3"/><path d=" M 703.156 352.929 Q 696.195 235.433 760.994 142.29 Q 792.907 161.914 822.185 243.495 Q 871.48 111.537 902.999 123.453 Q 918.209 156.487 898.162 199.047 C 878.116 241.608 826.963 299.279 836.018 344.218 Q 832.557 352.123 799.995 357.648 Q 766.696 254.054 762.321 262.971 Q 722.337 312.345 703.156 352.929 Z " fill="rgb(255,255,255)" vector-effect="non-scaling-stroke" stroke-width="1" stroke="rgb(255,255,255)" stroke-linejoin="miter" stroke-linecap="square" stroke-miterlimit="3"/><path d=" M 900.178 238.55 L 954.782 115.981 Q 939.366 116.768 927.362 108.686 Q 929.643 77.658 972.134 77.422 Q 983.775 59.441 992.918 49.314 Q 1146.161 42.462 1132.829 103.033 Q 1112.803 164.912 947.379 273.815 Q 915.112 285.122 854.825 315.245 Q 841.317 296.615 897.7 265.724 Q 984.827 193.66 997.332 173.702 Q 1065.553 128.684 1066.349 106.425 Q 1059.929 94.195 1022.078 109.65 Q 1009.523 128.644 989.379 169.278 Q 935.011 239.671 900.178 238.55 Z " fill="rgb(255,255,255)" vector-effect="non-scaling-stroke" stroke-width="1" stroke="rgb(255,255,255)" stroke-linejoin="miter" stroke-linecap="square" stroke-miterlimit="3"/><path d=" M 1269.378 261.251 C 1272.859 272.665 1327.05 217.737 1360.005 219.919 Q 1351.599 244.498 1316.658 279.124 Q 1274.156 317.035 1246.658 327.131 Q 1207.548 336.855 1174.003 323.11 Q 1173.964 284.473 1192.349 266.147 C 1210.734 247.821 1225.196 209.41 1232.442 181.026 C 1239.687 152.643 1257.895 55.115 1292.728 56.236 C 1327.561 57.356 1315.832 130.404 1307.003 165.63 C 1298.175 200.856 1265.898 249.837 1269.378 261.251 Z " fill="rgb(255,255,255)" vector-effect="non-scaling-stroke" stroke-width="1" stroke="rgb(255,255,255)" stroke-linejoin="miter" stroke-linecap="square" stroke-miterlimit="3"/><path d=" M 1487.312 102.335 Q 1524.318 108.175 1404.964 230.183 Q 1366.179 321.999 1466.666 265.675 Q 1508.794 239.376 1493.476 147.422 Q 1509.374 99.278 1544.885 151.561 Q 1552.524 225.553 1529.391 264.407 C 1506.257 303.261 1429.041 361.296 1387.818 329.589 C 1346.595 297.883 1324.877 213.018 1389.145 166.269 Q 1453.325 79.92 1487.312 102.335 Z " fill="rgb(255,255,255)" vector-effect="non-scaling-stroke" stroke-width="1" stroke="rgb(255,255,255)" stroke-linejoin="miter" stroke-linecap="square" stroke-miterlimit="3"/><path d=" M 1750.592 396.732 Q 1515.974 493.709 1517.167 340.378 Q 1512.513 249.168 1554.54 265.056 Q 1568.631 415.031 1667.064 375.233 Q 1714.373 343.196 1640.178 277.43 Q 1556.126 245.655 1568.159 203.825 Q 1642.407 68.663 1714.871 75.269 Q 1787.335 81.876 1775.787 158.456 Q 1734.455 130.942 1659.382 148.94 Q 1599.908 220.237 1697.371 237.161 C 1794.833 254.084 1774.883 378.99 1764.33 388.303 Q 1753.776 397.616 1750.592 396.732 Z " fill="rgb(255,255,255)" vector-effect="non-scaling-stroke" stroke-width="1" stroke="rgb(255,255,255)" stroke-linejoin="miter" stroke-linecap="square" stroke-miterlimit="3"/></g><g><path d=" M 693.121 497.052 C 741.334 496.083 745.176 429.357 770.16 391.37 C 839.401 344.869 814.991 454.95 797.806 478.831 C 766.725 522.022 749.386 572.078 728.567 611.162 C 702.96 659.234 637.789 693.535 664.4 615.724 C 690.77 538.618 673.357 543.539 641.84 602.707 C 625.905 632.623 574.974 696.579 576.546 635.662 C 576.678 630.541 578.054 616.877 580.505 612.276 C 603.506 569.096 620.419 512.787 645.759 477.572 C 670.662 442.967 671.442 333.405 712.351 394.32 C 725.05 413.229 704.313 476.513 693.121 497.052 Z " fill="rgb(255,255,255)" vector-effect="non-scaling-stroke" stroke-width="1" stroke="rgb(255,255,255)" stroke-linejoin="miter" stroke-linecap="square" stroke-miterlimit="3"/><path d=" M 471.948 487.299 C 513.244 567.045 532.729 466.226 555.319 438.395 C 625.376 417.034 584.235 361.358 525.781 364.34 C 491.038 366.113 433.281 402.546 408.24 416.705 C 372.254 437.053 311.198 506.398 297.621 537.409 C 273.62 592.231 255.646 623.498 258.54 680.223 C 261.456 737.381 346.208 753.129 383.124 732.255 C 435.412 702.689 468.865 660.842 508.32 627.98 C 534.73 605.984 634.019 528.336 591.481 541.306 C 552.82 553.094 479.514 596.547 456.497 622.038 C 442.362 637.693 321.389 698.079 317.127 684.103 C 299.916 627.657 333.01 586.887 365.297 551.129 C 405.126 507.016 421.926 482.982 460.273 460.417 C 525.801 387.843 509.735 450.023 473.311 480.36 L 471.948 487.299 Z " fill="rgb(255,255,255)" vector-effect="non-scaling-stroke" stroke-width="1" stroke="rgb(255,255,255)" stroke-linejoin="miter" stroke-linecap="square" stroke-miterlimit="3"/><path d=" M 892.717 386.835 C 842.348 395.512 829.431 479.15 892.839 422.892 C 909.543 404.392 896.791 399.374 892.717 386.835 Z " fill="rgb(255,255,255)" vector-effect="non-scaling-stroke" stroke-width="1" stroke="rgb(255,255,255)" stroke-linejoin="miter" stroke-linecap="square" stroke-miterlimit="3"/><path d=" M 849.965 457.708 C 849.939 511.006 797.219 538.457 787.831 586.243 C 774.084 617.641 721.649 747.164 778.183 700.078 C 826.876 659.521 815.601 609.775 850.595 571.019 C 872.984 546.222 917.12 431.144 853.041 450.682 L 849.965 457.708 Z " fill="rgb(255,255,255)" vector-effect="non-scaling-stroke" stroke-width="1" stroke="rgb(255,255,255)" stroke-linejoin="miter" stroke-linecap="square" stroke-miterlimit="3"/><path d=" M 875.781 660.752 C 914.402 648.496 927.347 529.017 943.264 569.726 C 955.996 597.38 958.914 620.874 967.488 640.617 C 974.435 656.612 1021.843 696.182 1019.835 656.837 C 1016.896 599.23 1048.157 559.636 1067.568 515.299 C 1077.92 491.654 1146.059 385.93 1085.169 389.037 C 1036.123 391.539 1043.658 492.919 1016.445 523.059 C 965.256 579.752 986.177 491.347 959.151 443.551 C 918.776 372.147 903.271 498.512 895.845 515.474 C 873.772 565.891 853.866 613.361 875.781 660.752 Z " fill="rgb(255,255,255)" vector-effect="non-scaling-stroke" stroke-width="1" stroke="rgb(255,255,255)" stroke-linejoin="miter" stroke-linecap="square" stroke-miterlimit="3"/><path d=" M 1230.534 410.815 C 1287.635 470.165 1235.81 480.977 1198.444 522.36 C 1185.834 541.092 1093.686 639.062 1141.536 652.345 C 1191.151 666.118 1247.253 602.124 1261.016 570.687 C 1285.53 514.695 1310.142 490.104 1307.211 432.662 C 1306.105 410.984 1255.974 451.977 1249.725 416.705 C 1244.998 390.019 1286.561 365.004 1307.927 379.389 C 1356.211 411.894 1346.208 473.677 1337.361 518.707 C 1324.7 583.148 1303.896 607.738 1259.635 644.602 C 1224.007 674.277 1156.319 719.613 1119.216 686.113 C 1086.104 656.216 1063.04 587.372 1095.621 560.235 C 1130.829 530.91 1144.317 480.968 1172.419 449.843 C 1177.296 444.442 1233.873 408.927 1230.534 410.815 Z " fill="rgb(255,255,255)" vector-effect="non-scaling-stroke" stroke-width="1" stroke="rgb(255,255,255)" stroke-linejoin="miter" stroke-linecap="square" stroke-miterlimit="3"/><path d=" M 1222.931 766.687 C 1263.572 729.794 1341.333 685.825 1393.011 666.992 C 1436.944 618.335 1413.019 603.359 1368.839 563.469 C 1321.475 520.703 1360.885 461.889 1386.264 433.781 C 1416.499 400.295 1493.259 356.531 1516.669 397.933 C 1535.582 431.381 1483.271 535.305 1448.207 537.094 C 1435.86 537.724 1502.687 390.829 1453.153 432.085 C 1402.084 474.621 1375.756 511.745 1416.799 561.022 C 1444.6 594.401 1521.515 674.654 1456.072 691.251 C 1393.684 707.074 1332.168 733.084 1278.582 746.674 C 1257.235 752.088 1231.284 767.774 1222.931 766.687 Z " fill="rgb(255,255,255)" vector-effect="non-scaling-stroke" stroke-width="1" stroke="rgb(255,255,255)" stroke-linejoin="miter" stroke-linecap="square" stroke-miterlimit="3"/></g></g></g></svg>